{
	"asset":{
		"generator":"Khronos glTF Blender I/O v4.0.44",
		"version":"2.0"
	},
	"scene":0,
	"scenes":[
		{
			"name":"Scene",
			"nodes":[
				2
			]
		}
	],
	"nodes":[
		{
			"mesh":0,
			"name":"Node1"
		},
		{
			"children":[
				0
			],
			"name":"Node0"
		},
		{
			"children":[
				1
			],
			"name":"Dorchester3D.com_19929_keel-billed_toucan_v1.glb",
			"rotation":[
				-0.70710688829422,
				0,
				0,
				0.7071066498756409
			],
			"scale":[
				0.10000000149011612,
				0.10000001639127731,
				0.10000001639127731
			]
		}
	],
	"materials":[
		{
			"doubleSided":true,
			"name":"Material.001",
			"pbrMetallicRoughness":{
				"baseColorTexture":{
					"index":0
				},
				"metallicFactor":0,
				"roughnessFactor":0.5
			}
		}
	],
	"meshes":[
		{
			"name":"Mesh_0",
			"primitives":[
				{
					"attributes":{
						"POSITION":0,
						"NORMAL":1,
						"TEXCOORD_0":2
					},
					"indices":3,
					"material":0
				},
				{
					"attributes":{
						"POSITION":4,
						"NORMAL":5,
						"TEXCOORD_0":6
					},
					"indices":7
				}
			]
		}
	],
	"textures":[
		{
			"sampler":0,
			"source":0
		}
	],
	"images":[
		{
			"mimeType":"image/jpeg",
			"name":"Toco_toucan_(Ramphastos_toco)_close-up",
			"uri":"Toco_toucan_Ramphastos_toco_close-up.jpg"
		}
	],
	"accessors":[
		{
			"bufferView":0,
			"componentType":5126,
			"count":36367,
			"max":[
				8.410282135009766,
				26.291481018066406,
				17.562623977661133
			],
			"min":[
				-8.410318374633789,
				-22.470321655273438,
				-12.031078338623047
			],
			"type":"VEC3"
		},
		{
			"bufferView":1,
			"componentType":5126,
			"count":36367,
			"type":"VEC3"
		},
		{
			"bufferView":2,
			"componentType":5126,
			"count":36367,
			"type":"VEC2"
		},
		{
			"bufferView":3,
			"componentType":5123,
			"count":217053,
			"type":"SCALAR"
		},
		{
			"bufferView":4,
			"componentType":5126,
			"count":3,
			"max":[
				-2.6940176486968994,
				-10.692922592163086,
				14.254426956176758
			],
			"min":[
				-2.747417688369751,
				-10.914022445678711,
				14.01812744140625
			],
			"type":"VEC3"
		},
		{
			"bufferView":5,
			"componentType":5126,
			"count":3,
			"type":"VEC3"
		},
		{
			"bufferView":6,
			"componentType":5126,
			"count":3,
			"type":"VEC2"
		},
		{
			"bufferView":7,
			"componentType":5123,
			"count":3,
			"type":"SCALAR"
		}
	],
	"bufferViews":[
		{
			"buffer":0,
			"byteLength":436404,
			"byteOffset":0,
			"target":34962
		},
		{
			"buffer":0,
			"byteLength":436404,
			"byteOffset":436404,
			"target":34962
		},
		{
			"buffer":0,
			"byteLength":290936,
			"byteOffset":872808,
			"target":34962
		},
		{
			"buffer":0,
			"byteLength":434106,
			"byteOffset":1163744,
			"target":34963
		},
		{
			"buffer":0,
			"byteLength":36,
			"byteOffset":1597852,
			"target":34962
		},
		{
			"buffer":0,
			"byteLength":36,
			"byteOffset":1597888,
			"target":34962
		},
		{
			"buffer":0,
			"byteLength":24,
			"byteOffset":1597924,
			"target":34962
		},
		{
			"buffer":0,
			"byteLength":6,
			"byteOffset":1597948,
			"target":34963
		}
	],
	"samplers":[
		{
			"magFilter":9729,
			"minFilter":9987
		}
	],
	"buffers":[
		{
			"byteLength":1597956,
			"uri":"toucan.bin"
		}
	]
}
